<svg width="20" height="20" viewBox="0 0 20 20" fill="none" xmlns="http://www.w3.org/2000/svg">
<mask id="mask0_1760_15445" style="mask-type:alpha" maskUnits="userSpaceOnUse" x="0" y="0" width="20" height="20">
<rect width="20" height="20" fill="#D9D9D9"/>
</mask>
<g mask="url(#mask0_1760_15445)">
<path d="M11.5626 18.3334H8.43762C8.22928 18.3334 8.04873 18.264 7.89595 18.1251C7.74317 17.9862 7.6529 17.8126 7.62512 17.6042L7.37512 15.6667C7.19456 15.5973 7.02456 15.514 6.86512 15.4167C6.70512 15.3195 6.54873 15.2154 6.39595 15.1042L4.58345 15.8542C4.38901 15.9237 4.19456 15.9306 4.00012 15.8751C3.80567 15.8195 3.6529 15.7015 3.54178 15.5209L2.00012 12.8334C1.88901 12.6529 1.85429 12.4584 1.89595 12.2501C1.93762 12.0417 2.04179 11.8751 2.20845 11.7501L3.77095 10.5626C3.75706 10.4654 3.75012 10.3715 3.75012 10.2809V9.71841C3.75012 9.62841 3.75706 9.5348 3.77095 9.43758L2.20845 8.25008C2.04179 8.12508 1.93762 7.95841 1.89595 7.75008C1.85429 7.54175 1.88901 7.3473 2.00012 7.16675L3.54178 4.47925C3.63901 4.2848 3.78817 4.16314 3.98929 4.11425C4.19095 4.06591 4.38901 4.07647 4.58345 4.14591L6.39595 4.89591C6.54873 4.7848 6.70845 4.68064 6.87512 4.58341C7.04178 4.48619 7.20845 4.40286 7.37512 4.33341L7.62512 2.39591C7.6529 2.18758 7.74317 2.01397 7.89595 1.87508C8.04873 1.73619 8.22928 1.66675 8.43762 1.66675H11.5626C11.771 1.66675 11.9515 1.73619 12.1043 1.87508C12.2571 2.01397 12.3473 2.18758 12.3751 2.39591L12.6251 4.33341C12.8057 4.40286 12.976 4.48619 13.136 4.58341C13.2954 4.68064 13.4515 4.7848 13.6043 4.89591L15.4168 4.14591C15.6112 4.07647 15.8057 4.06953 16.0001 4.12508C16.1946 4.18064 16.3473 4.29869 16.4585 4.47925L18.0001 7.16675C18.1112 7.3473 18.146 7.54175 18.1043 7.75008C18.0626 7.95841 17.9585 8.12508 17.7918 8.25008L16.2293 9.43758C16.2432 9.5348 16.2501 9.62841 16.2501 9.71841V10.2809C16.2501 10.3715 16.2362 10.4654 16.2085 10.5626L17.771 11.7501C17.9376 11.8751 18.0418 12.0417 18.0835 12.2501C18.1251 12.4584 18.0904 12.6529 17.9793 12.8334L16.4376 15.5001C16.3265 15.6806 16.1704 15.8023 15.9693 15.8651C15.7676 15.9273 15.5696 15.9237 15.3751 15.8542L13.6043 15.1042C13.4515 15.2154 13.2918 15.3195 13.1251 15.4167C12.9585 15.514 12.7918 15.5973 12.6251 15.6667L12.3751 17.6042C12.3473 17.8126 12.2571 17.9862 12.1043 18.1251C11.9515 18.264 11.771 18.3334 11.5626 18.3334ZM10.0418 12.9167C10.8473 12.9167 11.5348 12.632 12.1043 12.0626C12.6737 11.4931 12.9585 10.8056 12.9585 10.0001C12.9585 9.19453 12.6737 8.50703 12.1043 7.93758C11.5348 7.36814 10.8473 7.08341 10.0418 7.08341C9.22234 7.08341 8.53123 7.36814 7.96845 7.93758C7.40623 8.50703 7.12512 9.19453 7.12512 10.0001C7.12512 10.8056 7.40623 11.4931 7.96845 12.0626C8.53123 12.632 9.22234 12.9167 10.0418 12.9167ZM10.0418 11.2501C9.69456 11.2501 9.39956 11.1284 9.15679 10.8851C8.91345 10.6423 8.79179 10.3473 8.79179 10.0001C8.79179 9.65286 8.91345 9.35786 9.15679 9.11508C9.39956 8.87175 9.69456 8.75008 10.0418 8.75008C10.389 8.75008 10.6843 8.87175 10.9276 9.11508C11.1704 9.35786 11.2918 9.65286 11.2918 10.0001C11.2918 10.3473 11.1704 10.6423 10.9276 10.8851C10.6843 11.1284 10.389 11.2501 10.0418 11.2501ZM9.16679 16.6667H10.8126L11.1043 14.4584C11.5348 14.3473 11.9343 14.184 12.3026 13.9684C12.6704 13.7534 13.0071 13.4931 13.3126 13.1876L15.3751 14.0417L16.1876 12.6251L14.396 11.2709C14.4654 11.0765 14.514 10.8715 14.5418 10.6559C14.5696 10.4409 14.5835 10.2223 14.5835 10.0001C14.5835 9.77786 14.5696 9.55897 14.5418 9.34341C14.514 9.12841 14.4654 8.92369 14.396 8.72925L16.1876 7.37508L15.3751 5.95841L13.3126 6.83341C13.0071 6.51397 12.6704 6.24647 12.3026 6.03091C11.9343 5.81591 11.5348 5.65286 11.1043 5.54175L10.8335 3.33341H9.18762L8.89595 5.54175C8.4654 5.65286 8.06623 5.81591 7.69845 6.03091C7.33012 6.24647 6.99317 6.50703 6.68762 6.81258L4.62512 5.95841L3.81262 7.37508L5.60428 8.70841C5.53484 8.91675 5.48623 9.12508 5.45845 9.33341C5.43067 9.54175 5.41678 9.76397 5.41678 10.0001C5.41678 10.2223 5.43067 10.4376 5.45845 10.6459C5.48623 10.8542 5.53484 11.0626 5.60428 11.2709L3.81262 12.6251L4.62512 14.0417L6.68762 13.1667C6.99317 13.4862 7.33012 13.7534 7.69845 13.9684C8.06623 14.184 8.4654 14.3473 8.89595 14.4584L9.16679 16.6667Z" fill="#586A84"/>
</g>
</svg>
