<svg width="20" height="20" viewBox="0 0 20 20" fill="none" xmlns="http://www.w3.org/2000/svg">
<mask id="mask0_1760_7774" style="mask-type:alpha" maskUnits="userSpaceOnUse" x="0" y="0" width="20" height="20">
<rect width="20" height="20" fill="#D9D9D9"/>
</mask>
<g mask="url(#mask0_1760_7774)">
<path d="M4.87533 14.2501C5.58366 13.7084 6.37533 13.2812 7.25033 12.9684C8.12533 12.6562 9.04199 12.5001 10.0003 12.5001C10.9587 12.5001 11.8753 12.6562 12.7503 12.9684C13.6253 13.2812 14.417 13.7084 15.1253 14.2501C15.6114 13.6806 15.99 13.0348 16.2612 12.3126C16.5317 11.5904 16.667 10.8195 16.667 10.0001C16.667 8.15286 16.0178 6.5798 14.7195 5.28091C13.4206 3.98258 11.8475 3.33341 10.0003 3.33341C8.1531 3.33341 6.58033 3.98258 5.28199 5.28091C3.9831 6.5798 3.33366 8.15286 3.33366 10.0001C3.33366 10.8195 3.46921 11.5904 3.74033 12.3126C4.01088 13.0348 4.38921 13.6806 4.87533 14.2501ZM10.0003 10.8334C9.18088 10.8334 8.48977 10.5523 7.92699 9.99008C7.36477 9.4273 7.08366 8.73619 7.08366 7.91675C7.08366 7.0973 7.36477 6.40619 7.92699 5.84341C8.48977 5.28119 9.18088 5.00008 10.0003 5.00008C10.8198 5.00008 11.5109 5.28119 12.0737 5.84341C12.6359 6.40619 12.917 7.0973 12.917 7.91675C12.917 8.73619 12.6359 9.4273 12.0737 9.99008C11.5109 10.5523 10.8198 10.8334 10.0003 10.8334ZM10.0003 18.3334C8.84755 18.3334 7.76421 18.1145 6.75033 17.6767C5.73644 17.2395 4.85449 16.6459 4.10449 15.8959C3.35449 15.1459 2.76088 14.264 2.32366 13.2501C1.88588 12.2362 1.66699 11.1529 1.66699 10.0001C1.66699 8.8473 1.88588 7.76397 2.32366 6.75008C2.76088 5.73619 3.35449 4.85425 4.10449 4.10425C4.85449 3.35425 5.73644 2.76036 6.75033 2.32258C7.76421 1.88536 8.84755 1.66675 10.0003 1.66675C11.1531 1.66675 12.2364 1.88536 13.2503 2.32258C14.2642 2.76036 15.1462 3.35425 15.8962 4.10425C16.6462 4.85425 17.2398 5.73619 17.677 6.75008C18.1148 7.76397 18.3337 8.8473 18.3337 10.0001C18.3337 11.1529 18.1148 12.2362 17.677 13.2501C17.2398 14.264 16.6462 15.1459 15.8962 15.8959C15.1462 16.6459 14.2642 17.2395 13.2503 17.6767C12.2364 18.1145 11.1531 18.3334 10.0003 18.3334ZM10.0003 16.6667C10.7364 16.6667 11.4309 16.5592 12.0837 16.3442C12.7364 16.1287 13.3337 15.8195 13.8753 15.4167C13.3337 15.014 12.7364 14.7048 12.0837 14.4892C11.4309 14.2742 10.7364 14.1667 10.0003 14.1667C9.26421 14.1667 8.56977 14.2742 7.91699 14.4892C7.26421 14.7048 6.66699 15.014 6.12533 15.4167C6.66699 15.8195 7.26421 16.1287 7.91699 16.3442C8.56977 16.5592 9.26421 16.6667 10.0003 16.6667ZM10.0003 9.16675C10.3614 9.16675 10.66 9.04869 10.8962 8.81258C11.1323 8.57647 11.2503 8.27786 11.2503 7.91675C11.2503 7.55564 11.1323 7.25703 10.8962 7.02091C10.66 6.7848 10.3614 6.66675 10.0003 6.66675C9.63921 6.66675 9.3406 6.7848 9.10449 7.02091C8.86838 7.25703 8.75033 7.55564 8.75033 7.91675C8.75033 8.27786 8.86838 8.57647 9.10449 8.81258C9.3406 9.04869 9.63921 9.16675 10.0003 9.16675Z" fill="#586A84"/>
</g>
</svg>
